<svg width="201" height="54" viewBox="0 0 201 54" fill="none" xmlns="http://www.w3.org/2000/svg">
<path d="M73.2756 40V13.8182H90.6108V18.3821H78.8111V24.6207H89.4602V29.1847H78.8111V40H73.2756ZM93.8255 40V20.3636H99.1053V23.7898H99.3099C99.6678 22.571 100.269 21.6506 101.112 21.0284C101.956 20.3977 102.928 20.0824 104.027 20.0824C104.3 20.0824 104.594 20.0994 104.909 20.1335C105.225 20.1676 105.502 20.2145 105.74 20.2741V25.1065C105.485 25.0298 105.131 24.9616 104.679 24.902C104.227 24.8423 103.814 24.8125 103.439 24.8125C102.638 24.8125 101.922 24.9872 101.291 25.3366C100.669 25.6776 100.175 26.1548 99.8084 26.7685C99.4505 27.3821 99.2715 28.0895 99.2715 28.8906V40H93.8255ZM113.503 40.3707C112.25 40.3707 111.134 40.1534 110.153 39.7188C109.173 39.2756 108.398 38.6236 107.827 37.7628C107.264 36.8935 106.983 35.8111 106.983 34.5156C106.983 33.4247 107.183 32.5085 107.584 31.767C107.984 31.0256 108.53 30.429 109.22 29.9773C109.911 29.5256 110.695 29.1847 111.572 28.9545C112.459 28.7244 113.388 28.5625 114.359 28.4688C115.501 28.3494 116.422 28.2386 117.121 28.1364C117.82 28.0256 118.327 27.8636 118.642 27.6506C118.957 27.4375 119.115 27.1222 119.115 26.7045V26.6278C119.115 25.8182 118.859 25.1918 118.348 24.7486C117.845 24.3054 117.129 24.0838 116.2 24.0838C115.22 24.0838 114.44 24.3011 113.861 24.7358C113.281 25.1619 112.898 25.6989 112.71 26.3466L107.673 25.9375C107.929 24.7443 108.432 23.7131 109.182 22.8438C109.932 21.9659 110.899 21.2926 112.084 20.8239C113.277 20.3466 114.658 20.108 116.226 20.108C117.317 20.108 118.361 20.2358 119.358 20.4915C120.364 20.7472 121.254 21.1435 122.03 21.6804C122.814 22.2173 123.432 22.9077 123.884 23.7514C124.335 24.5866 124.561 25.5881 124.561 26.7557V40H119.396V37.277H119.243C118.928 37.8906 118.506 38.4318 117.977 38.9006C117.449 39.3608 116.814 39.723 116.072 39.9872C115.331 40.2429 114.474 40.3707 113.503 40.3707ZM115.063 36.6122C115.864 36.6122 116.571 36.4545 117.185 36.1392C117.798 35.8153 118.28 35.3807 118.629 34.8352C118.979 34.2898 119.153 33.6719 119.153 32.9815V30.8977C118.983 31.0085 118.749 31.1108 118.45 31.2045C118.161 31.2898 117.832 31.3707 117.466 31.4474C117.099 31.5156 116.733 31.5795 116.367 31.6392C116 31.6903 115.668 31.7372 115.369 31.7798C114.73 31.8736 114.172 32.0227 113.695 32.2273C113.217 32.4318 112.847 32.7088 112.582 33.0582C112.318 33.3991 112.186 33.8253 112.186 34.3366C112.186 35.0781 112.455 35.6449 112.992 36.0369C113.537 36.4205 114.227 36.6122 115.063 36.6122ZM128.696 40V20.3636H133.887V23.8281H134.117C134.526 22.6776 135.208 21.7699 136.162 21.1051C137.117 20.4403 138.259 20.108 139.588 20.108C140.935 20.108 142.081 20.4446 143.027 21.1179C143.973 21.7827 144.604 22.6861 144.919 23.8281H145.124C145.524 22.7031 146.249 21.804 147.297 21.1307C148.354 20.4489 149.603 20.108 151.043 20.108C152.875 20.108 154.362 20.6918 155.505 21.8594C156.655 23.0185 157.23 24.6634 157.23 26.794V40H151.797V27.8679C151.797 26.777 151.507 25.9588 150.928 25.4134C150.348 24.8679 149.624 24.5952 148.755 24.5952C147.766 24.5952 146.995 24.9105 146.441 25.5412C145.887 26.1634 145.61 26.9858 145.61 28.0085V40H140.33V27.7528C140.33 26.7898 140.053 26.0227 139.499 25.4517C138.953 24.8807 138.233 24.5952 137.338 24.5952C136.733 24.5952 136.188 24.7486 135.702 25.0554C135.225 25.3537 134.845 25.7756 134.564 26.321C134.283 26.858 134.142 27.4886 134.142 28.2131V40H128.696ZM170.391 40.3835C168.371 40.3835 166.633 39.9744 165.175 39.1562C163.726 38.3295 162.61 37.1619 161.826 35.6534C161.042 34.1364 160.65 32.3423 160.65 30.2713C160.65 28.2514 161.042 26.4787 161.826 24.9531C162.61 23.4276 163.714 22.2386 165.137 21.3864C166.569 20.5341 168.248 20.108 170.174 20.108C171.469 20.108 172.675 20.3168 173.792 20.7344C174.917 21.1435 175.897 21.7614 176.732 22.5881C177.576 23.4148 178.232 24.4545 178.701 25.7074C179.169 26.9517 179.404 28.4091 179.404 30.0795V31.5753H162.823V28.2003H174.277C174.277 27.4162 174.107 26.7216 173.766 26.1165C173.425 25.5114 172.952 25.0384 172.347 24.6974C171.75 24.348 171.056 24.1733 170.263 24.1733C169.437 24.1733 168.704 24.3651 168.064 24.7486C167.434 25.1236 166.939 25.6307 166.581 26.2699C166.223 26.9006 166.04 27.6037 166.032 28.3793V31.5881C166.032 32.5597 166.211 33.3991 166.569 34.1065C166.935 34.8139 167.451 35.3594 168.115 35.7429C168.78 36.1264 169.569 36.3182 170.481 36.3182C171.086 36.3182 171.64 36.233 172.142 36.0625C172.645 35.892 173.076 35.6364 173.434 35.2955C173.792 34.9545 174.064 34.5369 174.252 34.0426L179.289 34.375C179.033 35.5852 178.509 36.642 177.716 37.5455C176.932 38.4403 175.918 39.1392 174.674 39.642C173.438 40.1364 172.01 40.3835 170.391 40.3835ZM199.206 25.9631L194.22 26.2699C194.135 25.8437 193.952 25.4602 193.67 25.1193C193.389 24.7699 193.018 24.4929 192.558 24.2884C192.106 24.0753 191.565 23.9688 190.935 23.9688C190.091 23.9688 189.379 24.1477 188.8 24.5057C188.22 24.8551 187.93 25.3239 187.93 25.9119C187.93 26.3807 188.118 26.777 188.493 27.1009C188.868 27.4247 189.511 27.6847 190.423 27.8807L193.977 28.5966C195.886 28.9886 197.31 29.6193 198.247 30.4886C199.185 31.358 199.653 32.5 199.653 33.9148C199.653 35.2017 199.274 36.331 198.516 37.3026C197.766 38.2741 196.734 39.0327 195.422 39.5781C194.118 40.1151 192.614 40.3835 190.909 40.3835C188.31 40.3835 186.239 39.8423 184.696 38.7599C183.162 37.669 182.263 36.1861 181.999 34.3111L187.355 34.0298C187.517 34.8224 187.909 35.4276 188.531 35.8452C189.153 36.2543 189.95 36.4588 190.922 36.4588C191.876 36.4588 192.643 36.2756 193.223 35.9091C193.811 35.5341 194.109 35.0526 194.118 34.4645C194.109 33.9702 193.901 33.5653 193.491 33.25C193.082 32.9261 192.452 32.679 191.599 32.5085L188.199 31.831C186.281 31.4474 184.854 30.7827 183.916 29.8366C182.987 28.8906 182.523 27.6847 182.523 26.2188C182.523 24.9574 182.864 23.8707 183.545 22.9588C184.236 22.0469 185.203 21.3438 186.447 20.8494C187.7 20.3551 189.166 20.108 190.845 20.108C193.325 20.108 195.277 20.6321 196.7 21.6804C198.132 22.7287 198.967 24.1562 199.206 25.9631Z" fill="white"/>
<rect width="54" height="54" rx="12" fill="#7C65C1"/>
<path d="M13.6666 40.3335L40.3333 40.3335C42.1742 40.3335 43.6666 38.8411 43.6666 37.0002L43.6666 17.0002C43.6666 15.1592 42.1742 13.6668 40.3333 13.6668L13.6666 13.6668C11.8257 13.6668 10.3333 15.1592 10.3333 17.0002L10.3333 37.0002C10.3333 38.8411 11.8257 40.3335 13.6666 40.3335Z" stroke="white" stroke-width="3" stroke-linecap="round" stroke-linejoin="round"/>
<path d="M43.6666 33.6665L10.3333 33.6665" stroke="white" stroke-width="3" stroke-linecap="round" stroke-linejoin="round"/>
</svg>
