<svg width="403" height="36" viewBox="0 0 403 36" fill="none" xmlns="http://www.w3.org/2000/svg">
<path d="M0.0340909 35V0.0909081H23.1477V6.17614H7.41477V14.4943H21.6136V20.5795H7.41477V35H0.0340909ZM35.0236 35.4943C33.3532 35.4943 31.8645 35.2045 30.5577 34.625C29.2509 34.0341 28.2168 33.1648 27.4555 32.017C26.7055 30.858 26.3305 29.4148 26.3305 27.6875C26.3305 26.233 26.5975 25.0114 27.1316 24.0227C27.6657 23.0341 28.393 22.2386 29.3134 21.6364C30.2339 21.0341 31.2793 20.5795 32.4498 20.2727C33.6316 19.9659 34.8702 19.75 36.1657 19.625C37.6884 19.4659 38.9157 19.3182 39.8475 19.1818C40.7793 19.0341 41.4555 18.8182 41.8759 18.5341C42.2964 18.25 42.5066 17.8295 42.5066 17.2727V17.1705C42.5066 16.0909 42.1657 15.2557 41.4839 14.6648C40.8134 14.0739 39.8589 13.7784 38.6202 13.7784C37.3134 13.7784 36.2736 14.0682 35.5009 14.6477C34.7282 15.2159 34.2168 15.9318 33.9668 16.7955L27.2509 16.25C27.5918 14.6591 28.2623 13.2841 29.2623 12.125C30.2623 10.9545 31.552 10.0568 33.1316 9.43182C34.7225 8.79545 36.5634 8.47727 38.6543 8.47727C40.1089 8.47727 41.5009 8.64773 42.8305 8.98864C44.1714 9.32955 45.3589 9.85795 46.393 10.5739C47.4384 11.2898 48.2623 12.2102 48.8645 13.3352C49.4668 14.4489 49.768 15.7841 49.768 17.3409V35H42.8816V31.3693H42.677C42.2566 32.1875 41.6941 32.9091 40.9895 33.5341C40.285 34.1477 39.4384 34.6307 38.4498 34.983C37.4611 35.3239 36.3191 35.4943 35.0236 35.4943ZM37.1032 30.483C38.1714 30.483 39.1145 30.2727 39.9327 29.8523C40.7509 29.4205 41.393 28.8409 41.8589 28.1136C42.3248 27.3864 42.5577 26.5625 42.5577 25.642V22.8636C42.3305 23.0114 42.018 23.1477 41.6202 23.2727C41.2339 23.3864 40.7964 23.4943 40.3077 23.5966C39.8191 23.6875 39.3305 23.7727 38.8418 23.8523C38.3532 23.9205 37.91 23.983 37.5123 24.0398C36.66 24.1648 35.9157 24.3636 35.2793 24.6364C34.643 24.9091 34.1486 25.2784 33.7964 25.7443C33.4441 26.1989 33.268 26.767 33.268 27.4489C33.268 28.4375 33.6259 29.1932 34.3418 29.7159C35.0691 30.2273 35.9895 30.483 37.1032 30.483ZM55.3115 35V8.81818H62.3512V13.3864H62.624C63.1012 11.7614 63.9024 10.5341 65.0274 9.70455C66.1524 8.86364 67.4478 8.44318 68.9137 8.44318C69.2774 8.44318 69.6694 8.46591 70.0899 8.51136C70.5103 8.55682 70.8797 8.61932 71.1978 8.69886V15.142C70.8569 15.0398 70.3853 14.9489 69.7831 14.8693C69.1808 14.7898 68.6297 14.75 68.1297 14.75C67.0615 14.75 66.1069 14.983 65.266 15.4489C64.4365 15.9034 63.7774 16.5398 63.2887 17.358C62.8115 18.1761 62.5728 19.1193 62.5728 20.1875V35H55.3115ZM85.4729 35.5114C82.7911 35.5114 80.4843 34.9432 78.5524 33.8068C76.632 32.6591 75.1547 31.0682 74.1206 29.0341C73.0979 27 72.5865 24.6591 72.5865 22.0114C72.5865 19.3295 73.1036 16.9773 74.1377 14.9545C75.1831 12.9205 76.6661 11.3352 78.5865 10.1989C80.507 9.05114 82.7911 8.47727 85.4388 8.47727C87.7229 8.47727 89.7229 8.89205 91.4388 9.72159C93.1547 10.5511 94.5127 11.7159 95.5127 13.2159C96.5127 14.7159 97.0638 16.4773 97.1661 18.5H90.3138C90.1206 17.1932 89.6093 16.142 88.7797 15.3466C87.9615 14.5398 86.8877 14.1364 85.5581 14.1364C84.4331 14.1364 83.4502 14.4432 82.6093 15.0568C81.7797 15.6591 81.132 16.5398 80.6661 17.6989C80.2002 18.858 79.9672 20.2614 79.9672 21.9091C79.9672 23.5795 80.1945 25 80.649 26.1705C81.1149 27.3409 81.7684 28.233 82.6093 28.8466C83.4502 29.4602 84.4331 29.767 85.5581 29.767C86.3877 29.767 87.132 29.5966 87.7911 29.2557C88.4615 28.9148 89.0127 28.4205 89.4445 27.7727C89.8877 27.1136 90.1774 26.3239 90.3138 25.4034H97.1661C97.0524 27.4034 96.507 29.1648 95.5297 30.6875C94.5638 32.1989 93.2286 33.3807 91.524 34.233C89.8195 35.0852 87.8024 35.5114 85.4729 35.5114ZM109.191 35.4943C107.521 35.4943 106.032 35.2045 104.725 34.625C103.418 34.0341 102.384 33.1648 101.623 32.017C100.873 30.858 100.498 29.4148 100.498 27.6875C100.498 26.233 100.765 25.0114 101.299 24.0227C101.833 23.0341 102.56 22.2386 103.481 21.6364C104.401 21.0341 105.447 20.5795 106.617 20.2727C107.799 19.9659 109.038 19.75 110.333 19.625C111.856 19.4659 113.083 19.3182 114.015 19.1818C114.947 19.0341 115.623 18.8182 116.043 18.5341C116.464 18.25 116.674 17.8295 116.674 17.2727V17.1705C116.674 16.0909 116.333 15.2557 115.651 14.6648C114.981 14.0739 114.026 13.7784 112.788 13.7784C111.481 13.7784 110.441 14.0682 109.668 14.6477C108.896 15.2159 108.384 15.9318 108.134 16.7955L101.418 16.25C101.759 14.6591 102.43 13.2841 103.43 12.125C104.43 10.9545 105.72 10.0568 107.299 9.43182C108.89 8.79545 110.731 8.47727 112.822 8.47727C114.276 8.47727 115.668 8.64773 116.998 8.98864C118.339 9.32955 119.526 9.85795 120.56 10.5739C121.606 11.2898 122.43 12.2102 123.032 13.3352C123.634 14.4489 123.935 15.7841 123.935 17.3409V35H117.049V31.3693H116.845C116.424 32.1875 115.862 32.9091 115.157 33.5341C114.452 34.1477 113.606 34.6307 112.617 34.983C111.629 35.3239 110.487 35.4943 109.191 35.4943ZM111.271 30.483C112.339 30.483 113.282 30.2727 114.1 29.8523C114.918 29.4205 115.56 28.8409 116.026 28.1136C116.492 27.3864 116.725 26.5625 116.725 25.642V22.8636C116.498 23.0114 116.185 23.1477 115.788 23.2727C115.401 23.3864 114.964 23.4943 114.475 23.5966C113.987 23.6875 113.498 23.7727 113.009 23.8523C112.521 23.9205 112.077 23.983 111.68 24.0398C110.827 24.1648 110.083 24.3636 109.447 24.6364C108.81 24.9091 108.316 25.2784 107.964 25.7443C107.612 26.1989 107.435 26.767 107.435 27.4489C107.435 28.4375 107.793 29.1932 108.509 29.7159C109.237 30.2273 110.157 30.483 111.271 30.483ZM151.263 16.2841L144.615 16.6932C144.502 16.125 144.257 15.6136 143.882 15.1591C143.507 14.6932 143.013 14.3239 142.399 14.0511C141.797 13.767 141.076 13.625 140.235 13.625C139.11 13.625 138.161 13.8636 137.388 14.3409C136.615 14.8068 136.229 15.4318 136.229 16.2159C136.229 16.8409 136.479 17.3693 136.979 17.8011C137.479 18.233 138.337 18.5795 139.553 18.8409L144.291 19.7955C146.837 20.3182 148.735 21.1591 149.985 22.3182C151.235 23.4773 151.86 25 151.86 26.8864C151.86 28.6023 151.354 30.108 150.343 31.4034C149.343 32.6989 147.968 33.7102 146.218 34.4375C144.479 35.1534 142.473 35.5114 140.201 35.5114C136.735 35.5114 133.973 34.7898 131.916 33.3466C129.871 31.892 128.672 29.9148 128.32 27.4148L135.462 27.0398C135.678 28.0966 136.201 28.9034 137.03 29.4602C137.86 30.0057 138.922 30.2784 140.218 30.2784C141.49 30.2784 142.513 30.0341 143.286 29.5455C144.07 29.0455 144.468 28.4034 144.479 27.6193C144.468 26.9602 144.189 26.4205 143.644 26C143.098 25.5682 142.257 25.2386 141.121 25.0114L136.587 24.108C134.03 23.5966 132.127 22.7102 130.877 21.4489C129.638 20.1875 129.019 18.5795 129.019 16.625C129.019 14.9432 129.473 13.4943 130.382 12.2784C131.303 11.0625 132.593 10.125 134.252 9.46591C135.922 8.80682 137.877 8.47727 140.115 8.47727C143.422 8.47727 146.024 9.17614 147.922 10.5739C149.831 11.9716 150.945 13.875 151.263 16.2841ZM170.268 8.81818V14.2727H154.501V8.81818H170.268ZM158.081 2.54545H165.342V26.9545C165.342 27.625 165.444 28.1477 165.649 28.5227C165.853 28.8864 166.138 29.142 166.501 29.2898C166.876 29.4375 167.308 29.5114 167.797 29.5114C168.138 29.5114 168.478 29.483 168.819 29.4261C169.16 29.358 169.422 29.3068 169.603 29.2727L170.746 34.6761C170.382 34.7898 169.871 34.9205 169.211 35.0682C168.552 35.2273 167.751 35.3239 166.808 35.358C165.058 35.4261 163.524 35.1932 162.206 34.6591C160.899 34.125 159.882 33.2955 159.155 32.1705C158.427 31.0455 158.069 29.625 158.081 27.9091V2.54545ZM186.559 35.5114C183.866 35.5114 181.548 34.9659 179.604 33.875C177.673 32.7727 176.184 31.2159 175.138 29.2045C174.093 27.1818 173.57 24.7898 173.57 22.0284C173.57 19.3352 174.093 16.9716 175.138 14.9375C176.184 12.9034 177.656 11.3182 179.553 10.1818C181.462 9.04545 183.701 8.47727 186.269 8.47727C187.996 8.47727 189.604 8.75568 191.093 9.3125C192.593 9.85795 193.9 10.6818 195.013 11.7841C196.138 12.8864 197.013 14.2727 197.638 15.9432C198.263 17.6023 198.576 19.5455 198.576 21.7727V23.767H176.468V19.267H191.741C191.741 18.2216 191.513 17.2955 191.059 16.4886C190.604 15.6818 189.974 15.0511 189.167 14.5966C188.371 14.1307 187.445 13.8977 186.388 13.8977C185.286 13.8977 184.309 14.1534 183.457 14.6648C182.616 15.1648 181.957 15.8409 181.479 16.6932C181.002 17.5341 180.758 18.4716 180.746 19.5057V23.7841C180.746 25.0795 180.985 26.1989 181.462 27.142C181.951 28.0852 182.638 28.8125 183.525 29.3239C184.411 29.8352 185.462 30.0909 186.678 30.0909C187.485 30.0909 188.224 29.9773 188.894 29.75C189.565 29.5227 190.138 29.1818 190.616 28.7273C191.093 28.2727 191.457 27.7159 191.707 27.0568L198.423 27.5C198.082 29.1136 197.383 30.5227 196.326 31.7273C195.281 32.9205 193.928 33.8523 192.269 34.5227C190.621 35.1818 188.718 35.5114 186.559 35.5114ZM203.225 35V8.81818H210.264V13.3864H210.537C211.014 11.7614 211.816 10.5341 212.941 9.70455C214.066 8.86364 215.361 8.44318 216.827 8.44318C217.191 8.44318 217.583 8.46591 218.003 8.51136C218.423 8.55682 218.793 8.61932 219.111 8.69886V15.142C218.77 15.0398 218.298 14.9489 217.696 14.8693C217.094 14.7898 216.543 14.75 216.043 14.75C214.975 14.75 214.02 14.983 213.179 15.4489C212.35 15.9034 211.691 16.5398 211.202 17.358C210.725 18.1761 210.486 19.1193 210.486 20.1875V35H203.225ZM233.931 35V0.0909081H257.045V6.17614H241.312V14.4943H255.511V20.5795H241.312V35H233.931ZM261.361 35V8.81818H268.401V13.3864H268.673C269.151 11.7614 269.952 10.5341 271.077 9.70455C272.202 8.86364 273.497 8.44318 274.963 8.44318C275.327 8.44318 275.719 8.46591 276.139 8.51136C276.56 8.55682 276.929 8.61932 277.247 8.69886V15.142C276.906 15.0398 276.435 14.9489 275.832 14.8693C275.23 14.7898 274.679 14.75 274.179 14.75C273.111 14.75 272.156 14.983 271.315 15.4489C270.486 15.9034 269.827 16.5398 269.338 17.358C268.861 18.1761 268.622 19.1193 268.622 20.1875V35H261.361ZM287.627 35.4943C285.957 35.4943 284.468 35.2045 283.161 34.625C281.855 34.0341 280.821 33.1648 280.059 32.017C279.309 30.858 278.934 29.4148 278.934 27.6875C278.934 26.233 279.201 25.0114 279.735 24.0227C280.269 23.0341 280.997 22.2386 281.917 21.6364C282.838 21.0341 283.883 20.5795 285.054 20.2727C286.235 19.9659 287.474 19.75 288.769 19.625C290.292 19.4659 291.519 19.3182 292.451 19.1818C293.383 19.0341 294.059 18.8182 294.48 18.5341C294.9 18.25 295.11 17.8295 295.11 17.2727V17.1705C295.11 16.0909 294.769 15.2557 294.088 14.6648C293.417 14.0739 292.463 13.7784 291.224 13.7784C289.917 13.7784 288.877 14.0682 288.105 14.6477C287.332 15.2159 286.821 15.9318 286.571 16.7955L279.855 16.25C280.196 14.6591 280.866 13.2841 281.866 12.125C282.866 10.9545 284.156 10.0568 285.735 9.43182C287.326 8.79545 289.167 8.47727 291.258 8.47727C292.713 8.47727 294.105 8.64773 295.434 8.98864C296.775 9.32955 297.963 9.85795 298.997 10.5739C300.042 11.2898 300.866 12.2102 301.468 13.3352C302.071 14.4489 302.372 15.7841 302.372 17.3409V35H295.485V31.3693H295.281C294.86 32.1875 294.298 32.9091 293.593 33.5341C292.889 34.1477 292.042 34.6307 291.054 34.983C290.065 35.3239 288.923 35.4943 287.627 35.4943ZM289.707 30.483C290.775 30.483 291.718 30.2727 292.536 29.8523C293.355 29.4205 293.997 28.8409 294.463 28.1136C294.929 27.3864 295.161 26.5625 295.161 25.642V22.8636C294.934 23.0114 294.622 23.1477 294.224 23.2727C293.838 23.3864 293.4 23.4943 292.911 23.5966C292.423 23.6875 291.934 23.7727 291.446 23.8523C290.957 23.9205 290.514 23.983 290.116 24.0398C289.264 24.1648 288.519 24.3636 287.883 24.6364C287.247 24.9091 286.752 25.2784 286.4 25.7443C286.048 26.1989 285.872 26.767 285.872 27.4489C285.872 28.4375 286.23 29.1932 286.946 29.7159C287.673 30.2273 288.593 30.483 289.707 30.483ZM307.915 35V8.81818H314.836V13.4375H315.142C315.688 11.9034 316.597 10.6932 317.87 9.80682C319.142 8.92045 320.665 8.47727 322.438 8.47727C324.233 8.47727 325.762 8.92614 327.023 9.82386C328.285 10.7102 329.125 11.9148 329.546 13.4375H329.819C330.353 11.9375 331.319 10.7386 332.716 9.84091C334.125 8.93182 335.79 8.47727 337.711 8.47727C340.154 8.47727 342.137 9.25568 343.66 10.8125C345.194 12.358 345.961 14.5511 345.961 17.392V35H338.716V18.8239C338.716 17.3693 338.33 16.2784 337.557 15.5511C336.785 14.8239 335.819 14.4602 334.66 14.4602C333.341 14.4602 332.313 14.8807 331.574 15.7216C330.836 16.5511 330.466 17.6477 330.466 19.0114V35H323.427V18.6705C323.427 17.3864 323.057 16.3636 322.319 15.6023C321.591 14.8409 320.631 14.4602 319.438 14.4602C318.631 14.4602 317.904 14.6648 317.256 15.0739C316.62 15.4716 316.114 16.0341 315.739 16.7614C315.364 17.4773 315.177 18.3182 315.177 19.2841V35H307.915ZM363.538 35.5114C360.845 35.5114 358.527 34.9659 356.584 33.875C354.652 32.7727 353.163 31.2159 352.118 29.2045C351.072 27.1818 350.55 24.7898 350.55 22.0284C350.55 19.3352 351.072 16.9716 352.118 14.9375C353.163 12.9034 354.635 11.3182 356.533 10.1818C358.442 9.04545 360.68 8.47727 363.249 8.47727C364.976 8.47727 366.584 8.75568 368.072 9.3125C369.572 9.85795 370.879 10.6818 371.993 11.7841C373.118 12.8864 373.993 14.2727 374.618 15.9432C375.243 17.6023 375.555 19.5455 375.555 21.7727V23.767H353.447V19.267H368.72C368.72 18.2216 368.493 17.2955 368.038 16.4886C367.584 15.6818 366.953 15.0511 366.146 14.5966C365.351 14.1307 364.425 13.8977 363.368 13.8977C362.266 13.8977 361.288 14.1534 360.436 14.6648C359.595 15.1648 358.936 15.8409 358.459 16.6932C357.981 17.5341 357.737 18.4716 357.726 19.5057V23.7841C357.726 25.0795 357.964 26.1989 358.442 27.142C358.93 28.0852 359.618 28.8125 360.504 29.3239C361.391 29.8352 362.442 30.0909 363.658 30.0909C364.464 30.0909 365.203 29.9773 365.874 29.75C366.544 29.5227 367.118 29.1818 367.595 28.7273C368.072 28.2727 368.436 27.7159 368.686 27.0568L375.402 27.5C375.061 29.1136 374.362 30.5227 373.305 31.7273C372.26 32.9205 370.908 33.8523 369.249 34.5227C367.601 35.1818 365.697 35.5114 363.538 35.5114ZM401.988 16.2841L395.34 16.6932C395.227 16.125 394.982 15.6136 394.607 15.1591C394.232 14.6932 393.738 14.3239 393.124 14.0511C392.522 13.767 391.801 13.625 390.96 13.625C389.835 13.625 388.886 13.8636 388.113 14.3409C387.34 14.8068 386.954 15.4318 386.954 16.2159C386.954 16.8409 387.204 17.3693 387.704 17.8011C388.204 18.233 389.062 18.5795 390.278 18.8409L395.016 19.7955C397.562 20.3182 399.46 21.1591 400.71 22.3182C401.96 23.4773 402.585 25 402.585 26.8864C402.585 28.6023 402.079 30.108 401.068 31.4034C400.068 32.6989 398.693 33.7102 396.943 34.4375C395.204 35.1534 393.198 35.5114 390.926 35.5114C387.46 35.5114 384.698 34.7898 382.641 33.3466C380.596 31.892 379.397 29.9148 379.045 27.4148L386.187 27.0398C386.403 28.0966 386.926 28.9034 387.755 29.4602C388.585 30.0057 389.647 30.2784 390.943 30.2784C392.215 30.2784 393.238 30.0341 394.011 29.5455C394.795 29.0455 395.193 28.4034 395.204 27.6193C395.193 26.9602 394.914 26.4205 394.369 26C393.823 25.5682 392.982 25.2386 391.846 25.0114L387.312 24.108C384.755 23.5966 382.852 22.7102 381.602 21.4489C380.363 20.1875 379.744 18.5795 379.744 16.625C379.744 14.9432 380.198 13.4943 381.107 12.2784C382.028 11.0625 383.318 10.125 384.977 9.46591C386.647 8.80682 388.602 8.47727 390.84 8.47727C394.147 8.47727 396.749 9.17614 398.647 10.5739C400.556 11.9716 401.67 13.875 401.988 16.2841Z" fill="white"/>
</svg>
